<?xml version="1.0" encoding="UTF-8" standalone="no"?>
<svg width="45px" height="33px" viewBox="0 0 45 33" version="1.1" xmlns="http://www.w3.org/2000/svg" xmlns:xlink="http://www.w3.org/1999/xlink">
    <!-- Generator: Sketch 3.6.1 (26313) - http://www.bohemiancoding.com/sketch -->
    <title>graduation</title>
    <desc>Created with Sketch.</desc>
    <defs></defs>
    <g id="Page-1" stroke="none" stroke-width="1" fill="none" fill-rule="evenodd">
        <g id="Desktop" transform="translate(-494.000000, -1044.000000)" fill="#FFFFFF">
            <g id="TimeLine" transform="translate(96.000000, 954.000000)">
                <g id="Item-1" transform="translate(386.000000, 72.000000)">
                    <path d="M17.3597139,41.488282 C17.7216628,41.8521874 17.9319845,42.3525573 17.9319845,42.8622205 C17.9319845,43.3718836 17.7216628,43.8722535 17.3597139,44.2361589 C16.997765,44.5951731 16.4890801,44.8040274 15.9759931,44.8040274 C15.462417,44.8040274 14.9586232,44.5951731 14.5917832,44.2361589 C14.2298343,43.8722535 14.0195126,43.3718836 14.0195126,42.8622205 C14.0195126,42.3525573 14.2298343,41.8521874 14.5917832,41.488282 C14.9586232,41.1287787 15.462417,40.9204136 15.9759931,40.9204136 C16.4890801,40.9204136 16.9928738,41.1287787 17.3597139,41.488282 L17.3597139,41.488282 Z M34.4950592,37.432498 L18.4597451,29.301365 L34.4950592,22.0751043 L50.5298843,29.301365 L34.4950592,37.432498 Z M44.7665818,42.3814154 C43.7883416,43.5797597 40.4774875,47.3723971 34.2504992,47.3723971 C28.1844314,47.3723971 24.7126568,43.5929659 23.7344165,42.3618506 L23.7344165,36.329043 L33.6131757,41.3425242 C33.8929524,41.4843691 34.1937612,41.5552915 34.4989722,41.5552915 C34.8041832,41.5552915 35.1274916,41.4843691 35.4067792,41.3425242 L44.7665818,36.605885 L44.7665818,42.3814154 Z M55.8422179,27.4304806 L35.3035748,18.1738822 C34.7895096,17.9420393 34.2001198,17.9420393 33.6865437,18.1738822 L13.1479005,27.4304806 C12.4636215,27.7386262 12.0180331,28.4082317 12.0004247,29.1536507 C11.9833055,29.8990698 12.4856319,30.5887292 13.1547482,30.9276894 L14.9302543,31.7831605 L14.9302543,38.6411138 C14.9302543,39.3116975 15.4775797,39.8551099 16.1530546,39.8551099 C16.8280404,39.8551099 17.3758549,39.3116975 17.3758549,38.6411138 L17.3758549,33.0230801 L20.3105756,34.5931556 L20.3105756,42.9140672 C20.3105756,43.2437342 20.3991064,43.5660643 20.5800808,43.8424172 C20.7664356,44.1251286 25.2301459,50.7708038 34.2260432,50.7708038 C43.4757938,50.7708038 47.7414104,44.0889337 47.9179828,43.8047549 C48.0837945,43.5367171 48.1904227,43.2285714 48.1904227,42.9140672 L48.1904227,34.8699976 L55.9439549,30.9276894 C56.6130713,30.5887292 57.0165954,29.8990698 56.9994762,29.1536507 C56.9818678,28.4082317 56.5260079,27.7386262 55.8422179,27.4304806 L55.8422179,27.4304806 Z" id="graduation"></path>
                </g>
            </g>
        </g>
    </g>
</svg>