<?xml version="1.0" encoding="UTF-8" standalone="no"?>
<svg width="30px" height="46px" viewBox="0 0 30 46" version="1.1" xmlns="http://www.w3.org/2000/svg" xmlns:xlink="http://www.w3.org/1999/xlink">
    <!-- Generator: Sketch 3.6.1 (26313) - http://www.bohemiancoding.com/sketch -->
    <title>lightbulb</title>
    <desc>Created with Sketch.</desc>
    <defs></defs>
    <g id="Page-1" stroke="none" stroke-width="1" fill="none" fill-rule="evenodd">
        <g id="Desktop" transform="translate(-501.000000, -1564.000000)" fill="#E3153C">
            <g id="TimeLine" transform="translate(96.000000, 954.000000)">
                <g id="FINAL" transform="translate(0.000000, 204.000000)">
                    <g id="Item-1-Copy-3" transform="translate(386.000000, 394.000000)">
                        <path d="M41.9728198,27.1232356 C41.88533,28.0271302 41.1284184,28.7035513 40.2440215,28.7035513 C40.1875281,28.7035513 40.1305348,28.7005516 40.0730415,28.6950522 C39.1166531,28.6010632 38.4177346,27.745663 38.5107237,26.7832753 C38.7881914,23.9216091 36.2894829,22.9057277 36.0040162,22.7992401 C35.1091206,22.465779 34.6401753,21.4663956 34.9631376,20.563001 C35.2865999,19.6596064 36.2649858,19.1846618 37.1653807,19.5006249 C39.0206643,20.1525489 42.4127685,22.5847651 41.9728198,27.1232356 M38.4727282,55.45743 C38.5572183,56.5588015 37.7383139,57.5201893 36.6434416,57.6051794 L31.6890196,57.9886347 C31.6370257,57.9926342 31.5850317,57.994634 31.5340377,57.994634 C30.5056577,57.994634 29.6347593,57.197227 29.5542687,56.1483494 C29.4702785,55.0469779 30.2891829,54.08559 31.3835553,54.0010999 L36.3384772,53.6171447 C37.4348493,53.537154 38.388238,54.3565584 38.4727282,55.45743 M42.8232206,49.1421667 C42.9027114,50.2440382 42.0798074,51.2019264 40.9849351,51.2819171 L27.3300282,52.2798007 C27.2810339,52.2833003 27.2325395,52.2853 27.1840452,52.2853 C26.1516656,52.2853 25.2797674,51.4823937 25.2037762,50.4305164 C25.1242855,49.328645 25.9471895,48.3707567 27.0420618,48.2907661 L40.6969687,47.2928825 C41.7893412,47.2118919 42.7437299,48.0407952 42.8232206,49.1421667 M39.9815522,36.2346726 C39.3336277,36.5821321 39.0036662,37.2605529 39.0036662,37.9994667 L39.0036662,41.0501108 L29.0048328,41.8350192 L29.0048328,38.0009666 C29.0048328,37.2895496 28.7138667,36.6321263 28.102938,36.2736681 C24.6608396,34.2534038 23.0295299,31.2727515 23.0295299,27.1602313 C23.0295299,21.0064492 27.9549553,15.9995334 33.983252,15.9995334 C40.0115487,15.9995334 44.9639709,21.0064492 44.9639709,27.1602313 C44.9639709,31.1542653 43.1316846,34.5463696 39.9815522,36.2346726 M34.0042495,12 C25.7842085,12 19,18.8012065 19,27.1602313 C19,32.2576366 21.005766,36.3626577 25.0052994,39.1023381 L25.0052994,44.0027663 C25.0052994,44.5607013 25.3337611,45.0936391 25.7417135,45.4725949 C26.1101705,45.814555 26.6401087,46.002533 27.1380506,46.002533 C27.1910444,46.002533 27.2680354,46.0000333 27.3215292,45.9960338 L41.0759245,44.888163 C42.108304,44.8046728 43.0031996,43.937274 43.0031996,42.8948956 L43.0031996,39.1358342 C46.5027913,36.5986302 49,32.211142 49,27.1602313 C49,18.8012065 42.2247904,12 34.0042495,12" id="lightbulb"></path>
                    </g>
                </g>
            </g>
        </g>
    </g>
</svg>