<?xml version="1.0" encoding="UTF-8" standalone="no"?>
<svg width="97px" height="95px" viewBox="0 0 97 95" version="1.1" xmlns="http://www.w3.org/2000/svg" xmlns:xlink="http://www.w3.org/1999/xlink">
    <!-- Generator: Sketch 3.6.1 (26313) - http://www.bohemiancoding.com/sketch -->
    <title>Planete4</title>
    <desc>Created with Sketch.</desc>
    <defs></defs>
    <g id="Page-1" stroke="none" stroke-width="1" fill="none" fill-rule="evenodd">
        <g id="Free-Space-Icons" transform="translate(2.000000, -116.000000)" stroke="#E54225" stroke-width="4">
            <g id="Planete4" transform="translate(0.000000, 118.000000)">
                <circle id="Oval" cx="4.806" cy="12.06" r="4"></circle>
                <circle id="Oval" cx="67.806" cy="68.06" r="4"></circle>
                <circle id="Oval" cx="24.806" cy="4.06" r="1"></circle>
                <circle id="Oval" cx="62.806" cy="2.06" r="1"></circle>
                <circle id="Oval" cx="6.806" cy="28.06" r="1"></circle>
                <circle id="Oval" cx="27.806" cy="85.06" r="1"></circle>
                <circle id="Oval" cx="6.806" cy="76.06" r="6"></circle>
                <circle id="Oval" cx="76.806" cy="8.06" r="8"></circle>
                <path d="M81.852,14.264 C88.683,22.291 92.806,32.694 92.806,44.059 C92.806,69.464 72.209,90.059 46.806,90.059" id="Shape"></path>
                <path id="Shape" d="M23.029,47.345 C22.882,46.271 22.806,45.174 22.806,44.06"></path>
                <path d="M24.551,35.058 C27.141,28.662 32.409,23.635 38.965,21.37" id="Shape"></path>
                <path d="M64.707,70.588 C59.598,74.043 53.438,76.06 46.806,76.06 C29.133,76.06 14.806,61.733 14.806,44.06 C14.806,26.387 29.133,12.06 46.806,12.06 C64.479,12.06 78.806,26.387 78.806,44.06 C78.806,52.222 75.75,59.671 70.72,65.324" id="Shape"></path>
            </g>
        </g>
    </g>
</svg>