<?xml version="1.0" encoding="UTF-8" standalone="no"?>
<svg width="87px" height="93px" viewBox="0 0 87 93" version="1.1" xmlns="http://www.w3.org/2000/svg" xmlns:xlink="http://www.w3.org/1999/xlink">
    <!-- Generator: Sketch 3.6.1 (26313) - http://www.bohemiancoding.com/sketch -->
    <title>Planete8</title>
    <desc>Created with Sketch.</desc>
    <defs></defs>
    <g id="Page-1" stroke="none" stroke-width="1" fill="none" fill-rule="evenodd">
        <g id="Free-Space-Icons" transform="translate(-4.000000, 0.000000)" stroke="#E54225" stroke-width="4">
            <g id="Planete8" transform="translate(6.000000, 2.000000)">
                <circle id="Oval" cx="12.806" cy="4.06" r="4"></circle>
                <circle id="Oval" cx="55.806" cy="31.06" r="4"></circle>
                <circle id="Oval" cx="27.806" cy="68.06" r="4"></circle>
                <circle id="Oval" cx="1.806" cy="16.06" r="1"></circle>
                <circle id="Oval" cx="38.806" cy="66.06" r="1"></circle>
                <circle id="Oval" cx="22.806" cy="53.06" r="1"></circle>
                <circle id="Oval" cx="42.806" cy="34.06" r="1"></circle>
                <circle id="Oval" cx="71.806" cy="75.06" r="11"></circle>
                <path d="M59.804,30.948 C64.222,30.935 67.698,34.506 67.711,38.925 C67.724,43.343 64.153,46.936 59.734,46.948 C55.316,46.961 51.723,43.39 51.711,38.971 C51.706,37.171 52.295,35.508 53.294,34.168" id="Shape"></path>
                <path d="M63.417,82.174 C57.469,85.885 50.446,88.037 42.92,88.06 C21.383,88.124 3.87,70.714 3.806,49.172 C3.746,27.634 21.155,10.121 42.692,10.06 C64.229,9.996 81.742,27.405 81.806,48.943 C81.823,55.002 80.458,60.741 78.008,65.863" id="Shape"></path>
            </g>
        </g>
    </g>
</svg>