<?xml version="1.0" encoding="UTF-8" standalone="no"?>
<svg width="95px" height="86px" viewBox="0 0 95 86" version="1.1" xmlns="http://www.w3.org/2000/svg" xmlns:xlink="http://www.w3.org/1999/xlink">
    <!-- Generator: Sketch 3.6.1 (26313) - http://www.bohemiancoding.com/sketch -->
    <title>planete7</title>
    <desc>Created with Sketch.</desc>
    <defs></defs>
    <g id="Page-1" stroke="none" stroke-width="1" fill="none" fill-rule="evenodd">
        <g id="Free-Space-Icons" transform="translate(-116.000000, -3.000000)" stroke="#E54225" stroke-width="4">
            <g id="planete7" transform="translate(118.000000, 5.000000)">
                <circle id="Oval" cx="44.806" cy="46.06" r="35"></circle>
                <path d="M75.586,29.383 C78.46,29.616 80.99,30.064 83.092,30.721 C86.737,31.86 89.097,33.629 89.738,36.006 C91.896,44.004 73.762,55.854 49.234,62.472 C24.706,69.091 3.073,67.972 0.915,59.974 C0.31,57.731 1.3,55.187 3.579,52.54" id="Shape"></path>
                <circle id="Oval" cx="82.806" cy="8.06" r="8"></circle>
                <circle id="Oval" cx="64.806" cy="3.06" r="3"></circle>
                <path d="M17.875,44.143 C17.979,42.693 18.199,41.265 18.53,39.869" id="Shape"></path>
                <path d="M21.238,32.91 C24.662,26.779 30.461,21.981 37.777,20.008" id="Shape"></path>
            </g>
        </g>
    </g>
</svg>